<mxfile host="Electron" agent="Mozilla/5.0 (X11; Linux x86_64) AppleWebKit/537.36 (KHTML, like Gecko) draw.io/26.1.1 Chrome/132.0.6834.210 Electron/34.3.3 Safari/537.36" version="26.1.1">
  <diagram name="Page-1" id="13e1069c-82ec-6db2-03f1-153e76fe0fe0">
    <mxGraphModel dx="1483" dy="633" grid="1" gridSize="10" guides="1" tooltips="1" connect="1" arrows="1" fold="1" page="1" pageScale="1" pageWidth="1100" pageHeight="850" background="none" math="0" shadow="0">
      <root>
        <mxCell id="0" />
        <mxCell id="1" parent="0" />
        <mxCell id="7baba1c4bc27f4b0-2" value="brain:MemoryArchiver" style="shape=umlLifeline;perimeter=lifelinePerimeter;whiteSpace=wrap;html=1;container=1;collapsible=0;recursiveResize=0;outlineConnect=0;rounded=1;shadow=0;comic=0;labelBackgroundColor=none;strokeWidth=1;fontFamily=Verdana;fontSize=9;align=center;" parent="1" vertex="1">
          <mxGeometry x="40" y="80" width="100" height="540" as="geometry" />
        </mxCell>
        <mxCell id="5n9GaSaRlE_RE6hPZaEw-75" value="" style="html=1;points=[[0,0,0,0,5],[0,1,0,0,-5],[1,0,0,0,5],[1,1,0,0,-5]];perimeter=orthogonalPerimeter;outlineConnect=0;targetShapes=umlLifeline;portConstraint=eastwest;newEdgeStyle={&quot;curved&quot;:0,&quot;rounded&quot;:0};" vertex="1" parent="7baba1c4bc27f4b0-2">
          <mxGeometry x="50" y="60" width="10" height="470" as="geometry" />
        </mxCell>
        <mxCell id="7baba1c4bc27f4b0-3" value="brain:ConversationLog" style="shape=umlLifeline;perimeter=lifelinePerimeter;whiteSpace=wrap;html=1;container=1;collapsible=0;recursiveResize=0;outlineConnect=0;rounded=1;shadow=0;comic=0;labelBackgroundColor=none;strokeWidth=1;fontFamily=Verdana;fontSize=9;align=center;" parent="1" vertex="1">
          <mxGeometry x="220" y="80" width="100" height="530" as="geometry" />
        </mxCell>
        <mxCell id="5n9GaSaRlE_RE6hPZaEw-78" value="" style="html=1;points=[[0,0,0,0,5],[0,1,0,0,-5],[1,0,0,0,5],[1,1,0,0,-5]];perimeter=orthogonalPerimeter;outlineConnect=0;targetShapes=umlLifeline;portConstraint=eastwest;newEdgeStyle={&quot;curved&quot;:0,&quot;rounded&quot;:0};" vertex="1" parent="7baba1c4bc27f4b0-3">
          <mxGeometry x="40" y="60" width="10" height="80" as="geometry" />
        </mxCell>
        <mxCell id="5n9GaSaRlE_RE6hPZaEw-94" value="" style="html=1;points=[[0,0,0,0,5],[0,1,0,0,-5],[1,0,0,0,5],[1,1,0,0,-5]];perimeter=orthogonalPerimeter;outlineConnect=0;targetShapes=umlLifeline;portConstraint=eastwest;newEdgeStyle={&quot;curved&quot;:0,&quot;rounded&quot;:0};" vertex="1" parent="7baba1c4bc27f4b0-3">
          <mxGeometry x="40" y="440" width="10" height="80" as="geometry" />
        </mxCell>
        <mxCell id="7baba1c4bc27f4b0-4" value="brain:Long_term_mem" style="shape=umlLifeline;perimeter=lifelinePerimeter;whiteSpace=wrap;html=1;container=1;collapsible=0;recursiveResize=0;outlineConnect=0;rounded=1;shadow=0;comic=0;labelBackgroundColor=none;strokeWidth=1;fontFamily=Verdana;fontSize=9;align=center;" parent="1" vertex="1">
          <mxGeometry x="550" y="80" width="130" height="530" as="geometry" />
        </mxCell>
        <mxCell id="5n9GaSaRlE_RE6hPZaEw-91" value="" style="html=1;points=[[0,0,0,0,5],[0,1,0,0,-5],[1,0,0,0,5],[1,1,0,0,-5]];perimeter=orthogonalPerimeter;outlineConnect=0;targetShapes=umlLifeline;portConstraint=eastwest;newEdgeStyle={&quot;curved&quot;:0,&quot;rounded&quot;:0};" vertex="1" parent="7baba1c4bc27f4b0-4">
          <mxGeometry x="60" y="320" width="10" height="80" as="geometry" />
        </mxCell>
        <mxCell id="7baba1c4bc27f4b0-41" value="(Internal: Checks schedule and inactivity status for relevant users/conversations)" style="shape=note;whiteSpace=wrap;html=1;size=14;verticalAlign=middle;align=left;spacingTop=-6;rounded=0;shadow=0;comic=0;labelBackgroundColor=none;strokeWidth=1;fontFamily=Verdana;fontSize=8;" parent="1" vertex="1">
          <mxGeometry x="40" y="19" width="100" height="45" as="geometry" />
        </mxCell>
        <mxCell id="7baba1c4bc27f4b0-42" value="Note" style="shape=note;whiteSpace=wrap;html=1;size=14;verticalAlign=top;align=left;spacingTop=-6;rounded=0;shadow=0;comic=0;labelBackgroundColor=none;strokeWidth=1;fontFamily=Verdana;fontSize=8;" parent="1" vertex="1">
          <mxGeometry x="220" y="30" width="100" height="35" as="geometry" />
        </mxCell>
        <mxCell id="7baba1c4bc27f4b0-43" value="Note" style="shape=note;whiteSpace=wrap;html=1;size=14;verticalAlign=top;align=left;spacingTop=-6;rounded=0;shadow=0;comic=0;labelBackgroundColor=none;strokeWidth=1;fontFamily=Verdana;fontSize=8;" parent="1" vertex="1">
          <mxGeometry x="550" y="30" width="130" height="35" as="geometry" />
        </mxCell>
        <mxCell id="5n9GaSaRlE_RE6hPZaEw-56" value="brain:Language_center" style="shape=umlLifeline;perimeter=lifelinePerimeter;whiteSpace=wrap;html=1;container=1;collapsible=0;recursiveResize=0;outlineConnect=0;rounded=1;shadow=0;comic=0;labelBackgroundColor=none;strokeWidth=1;fontFamily=Verdana;fontSize=10;align=center;" vertex="1" parent="1">
          <mxGeometry x="400" y="80" width="100" height="530" as="geometry" />
        </mxCell>
        <mxCell id="5n9GaSaRlE_RE6hPZaEw-88" value="" style="html=1;points=[[0,0,0,0,5],[0,1,0,0,-5],[1,0,0,0,5],[1,1,0,0,-5]];perimeter=orthogonalPerimeter;outlineConnect=0;targetShapes=umlLifeline;portConstraint=eastwest;newEdgeStyle={&quot;curved&quot;:0,&quot;rounded&quot;:0};" vertex="1" parent="5n9GaSaRlE_RE6hPZaEw-56">
          <mxGeometry x="40" y="200" width="10" height="80" as="geometry" />
        </mxCell>
        <mxCell id="5n9GaSaRlE_RE6hPZaEw-74" value="Note" style="shape=note;whiteSpace=wrap;html=1;size=14;verticalAlign=top;align=left;spacingTop=-6;rounded=0;shadow=0;comic=0;labelBackgroundColor=none;strokeWidth=1;fontFamily=Verdana;fontSize=8;" vertex="1" parent="1">
          <mxGeometry x="400" y="30" width="100" height="35" as="geometry" />
        </mxCell>
        <mxCell id="5n9GaSaRlE_RE6hPZaEw-79" value="get_unarchived_raw_turns(user_id, last_archived_turn_id)" style="html=1;verticalAlign=bottom;endArrow=block;curved=0;rounded=0;entryX=0;entryY=0;entryDx=0;entryDy=5;fontSize=8;" edge="1" target="5n9GaSaRlE_RE6hPZaEw-78" parent="1" source="5n9GaSaRlE_RE6hPZaEw-75">
          <mxGeometry relative="1" as="geometry">
            <mxPoint x="110" y="165" as="sourcePoint" />
          </mxGeometry>
        </mxCell>
        <mxCell id="5n9GaSaRlE_RE6hPZaEw-80" value="return: batch_of_raw_turns" style="html=1;verticalAlign=bottom;endArrow=open;dashed=1;endSize=8;curved=0;rounded=0;exitX=0;exitY=1;exitDx=0;exitDy=-5;fontSize=8;" edge="1" source="5n9GaSaRlE_RE6hPZaEw-78" parent="1" target="5n9GaSaRlE_RE6hPZaEw-75">
          <mxGeometry relative="1" as="geometry">
            <mxPoint x="110" y="230" as="targetPoint" />
          </mxGeometry>
        </mxCell>
        <mxCell id="5n9GaSaRlE_RE6hPZaEw-89" value="request_archival_summary(batch_of_raw_turns)" style="html=1;verticalAlign=bottom;endArrow=block;curved=0;rounded=0;entryX=0;entryY=0;entryDx=0;entryDy=5;fontSize=8;" edge="1" target="5n9GaSaRlE_RE6hPZaEw-88" parent="1" source="5n9GaSaRlE_RE6hPZaEw-75">
          <mxGeometry relative="1" as="geometry">
            <mxPoint x="370" y="285" as="sourcePoint" />
          </mxGeometry>
        </mxCell>
        <mxCell id="5n9GaSaRlE_RE6hPZaEw-90" value="return: comprehensive_conversation_summary" style="html=1;verticalAlign=bottom;endArrow=open;dashed=1;endSize=8;curved=0;rounded=0;exitX=0;exitY=1;exitDx=0;exitDy=-5;fontSize=8;" edge="1" source="5n9GaSaRlE_RE6hPZaEw-88" parent="1" target="5n9GaSaRlE_RE6hPZaEw-75">
          <mxGeometry relative="1" as="geometry">
            <mxPoint x="370" y="355" as="targetPoint" />
          </mxGeometry>
        </mxCell>
        <mxCell id="5n9GaSaRlE_RE6hPZaEw-92" value="store_conversation_summary(user_id, conversation_id, comprehensive_conversation_summary, relevant_keywords_topics, timestamp_range)" style="html=1;verticalAlign=bottom;endArrow=block;curved=0;rounded=0;entryX=0;entryY=0;entryDx=0;entryDy=5;fontSize=8;" edge="1" target="5n9GaSaRlE_RE6hPZaEw-91" parent="1">
          <mxGeometry relative="1" as="geometry">
            <mxPoint x="100" y="405" as="sourcePoint" />
          </mxGeometry>
        </mxCell>
        <mxCell id="5n9GaSaRlE_RE6hPZaEw-93" value="return: ack" style="html=1;verticalAlign=bottom;endArrow=open;dashed=1;endSize=8;curved=0;rounded=0;exitX=0;exitY=1;exitDx=0;exitDy=-5;fontSize=8;" edge="1" source="5n9GaSaRlE_RE6hPZaEw-91" parent="1">
          <mxGeometry relative="1" as="geometry">
            <mxPoint x="100" y="475" as="targetPoint" />
          </mxGeometry>
        </mxCell>
        <mxCell id="5n9GaSaRlE_RE6hPZaEw-95" value="delete_archived_turns" style="html=1;verticalAlign=bottom;endArrow=block;curved=0;rounded=0;entryX=0;entryY=0;entryDx=0;entryDy=5;fontSize=8;" edge="1" target="5n9GaSaRlE_RE6hPZaEw-94" parent="1">
          <mxGeometry relative="1" as="geometry">
            <mxPoint x="100" y="525" as="sourcePoint" />
          </mxGeometry>
        </mxCell>
        <mxCell id="5n9GaSaRlE_RE6hPZaEw-96" value="return: ack" style="html=1;verticalAlign=bottom;endArrow=open;dashed=1;endSize=8;curved=0;rounded=0;exitX=0;exitY=1;exitDx=0;exitDy=-5;fontSize=8;" edge="1" source="5n9GaSaRlE_RE6hPZaEw-94" parent="1">
          <mxGeometry relative="1" as="geometry">
            <mxPoint x="100" y="595" as="targetPoint" />
          </mxGeometry>
        </mxCell>
      </root>
    </mxGraphModel>
  </diagram>
</mxfile>
